<svg xmlns="http://www.w3.org/2000/svg" xmlns:xlink="http://www.w3.org/1999/xlink" width="500" zoomAndPan="magnify" viewBox="0 0 375 97.92" height="120" preserveAspectRatio="xMidYMid meet" version="1.0"><defs><g/><clipPath id="b4b9b31ec5"><path d="M 0.152344 14 L 374.847656 14 L 374.847656 75 L 0.152344 75 Z M 0.152344 14 " clip-rule="nonzero"/></clipPath><clipPath id="f4d2451b00"><rect x="0" width="375" y="0" height="61"/></clipPath></defs><g clip-path="url(#b4b9b31ec5)"><g transform="matrix(1, 0, 0, 1, 0.000000000000000028, 14)"><g clip-path="url(#f4d2451b00)"><g fill="#e30a17" fill-opacity="1"><g transform="translate(0.153061, 48.146553)"><g><path d="M 1.234375 -27.390625 L 1.234375 -35.234375 L 31.6875 -35.234375 L 31.6875 -27.390625 L 21.265625 -27.390625 L 21.265625 0 L 11.65625 0 L 11.65625 -27.390625 Z M 1.234375 -27.390625 "/></g></g></g><g fill="#e30a17" fill-opacity="1"><g transform="translate(33.073991, 48.146553)"><g><path d="M 17.359375 0.453125 C 14.328125 0.453125 11.671875 -0.078125 9.390625 -1.140625 C 7.117188 -2.210938 5.347656 -3.726562 4.078125 -5.6875 C 2.804688 -7.644531 2.171875 -9.96875 2.171875 -12.65625 L 2.171875 -35.234375 L 11.734375 -35.234375 L 11.734375 -13.453125 C 11.734375 -12.347656 11.976562 -11.375 12.46875 -10.53125 C 12.957031 -9.6875 13.625 -9.023438 14.46875 -8.546875 C 15.3125 -8.066406 16.285156 -7.828125 17.390625 -7.828125 C 18.472656 -7.828125 19.4375 -8.066406 20.28125 -8.546875 C 21.132812 -9.023438 21.804688 -9.6875 22.296875 -10.53125 C 22.785156 -11.375 23.03125 -12.347656 23.03125 -13.453125 L 23.03125 -35.234375 L 32.59375 -35.234375 L 32.59375 -12.65625 C 32.59375 -9.96875 31.957031 -7.644531 30.6875 -5.6875 C 29.414062 -3.726562 27.632812 -2.210938 25.34375 -1.140625 C 23.0625 -0.078125 20.398438 0.453125 17.359375 0.453125 Z M 17.359375 0.453125 "/></g></g></g><g fill="#e30a17" fill-opacity="1"><g transform="translate(67.839629, 48.146553)"><g><path d="M 2.171875 0 L 2.171875 -35.234375 L 17.3125 -35.234375 C 19.976562 -35.234375 22.300781 -34.753906 24.28125 -33.796875 C 26.269531 -32.835938 27.8125 -31.453125 28.90625 -29.640625 C 30.007812 -27.835938 30.5625 -25.691406 30.5625 -23.203125 C 30.5625 -20.691406 29.992188 -18.566406 28.859375 -16.828125 C 27.734375 -15.085938 26.148438 -13.765625 24.109375 -12.859375 C 22.066406 -11.953125 19.679688 -11.5 16.953125 -11.5 L 8.015625 -11.5 L 8.015625 -18.96875 L 15.390625 -18.96875 C 16.492188 -18.96875 17.4375 -19.113281 18.21875 -19.40625 C 19 -19.707031 19.601562 -20.171875 20.03125 -20.796875 C 20.457031 -21.421875 20.671875 -22.222656 20.671875 -23.203125 C 20.671875 -24.179688 20.457031 -24.984375 20.03125 -25.609375 C 19.601562 -26.242188 19 -26.71875 18.21875 -27.03125 C 17.4375 -27.34375 16.492188 -27.5 15.390625 -27.5 L 11.796875 -27.5 L 11.796875 0 Z M 21.359375 0 L 12.953125 -16.125 L 23.078125 -16.125 L 31.71875 0 Z M 21.359375 0 "/></g></g></g><g fill="#e30a17" fill-opacity="1"><g transform="translate(100.169314, 48.146553)"><g><path d="M 9.4375 -5.90625 L 9.4375 -14.875 C 10.113281 -16.25 10.78125 -17.507812 11.4375 -18.65625 C 12.101562 -19.8125 12.84375 -20.976562 13.65625 -22.15625 C 14.46875 -23.34375 15.453125 -24.6875 16.609375 -26.1875 L 23.609375 -35.234375 L 34.9375 -35.234375 L 20.203125 -17.09375 L 19.296875 -17.390625 Z M 2.171875 0 L 2.171875 -35.234375 L 11.796875 -35.234375 L 11.796875 -27.671875 L 11.65625 -17.53125 L 11.796875 -12.859375 L 11.796875 0 Z M 24.34375 0 L 15.84375 -14.171875 L 21.875 -21.265625 L 35.59375 0 Z M 24.34375 0 "/></g></g></g><g fill="#e30a17" fill-opacity="1"><g transform="translate(136.614115, 48.146553)"><g><path d="M 11.796875 -35.234375 L 11.796875 0 L 2.171875 0 L 2.171875 -35.234375 Z M 11.796875 -35.234375 "/></g></g></g><g fill="#e30a17" fill-opacity="1"><g transform="translate(150.614971, 48.146553)"><g><path d="M 16.609375 0.453125 C 13.515625 0.453125 10.828125 -0.00390625 8.546875 -0.921875 C 6.265625 -1.835938 4.503906 -3.234375 3.265625 -5.109375 C 2.035156 -6.984375 1.410156 -9.363281 1.390625 -12.25 L 10.53125 -12.25 C 10.59375 -11.207031 10.863281 -10.316406 11.34375 -9.578125 C 11.832031 -8.847656 12.515625 -8.296875 13.390625 -7.921875 C 14.273438 -7.554688 15.320312 -7.375 16.53125 -7.375 C 17.550781 -7.375 18.414062 -7.5 19.125 -7.75 C 19.84375 -8.007812 20.390625 -8.363281 20.765625 -8.8125 C 21.140625 -9.257812 21.328125 -9.785156 21.328125 -10.390625 C 21.328125 -10.921875 21.148438 -11.390625 20.796875 -11.796875 C 20.441406 -12.210938 19.863281 -12.582031 19.0625 -12.90625 C 18.269531 -13.238281 17.222656 -13.53125 15.921875 -13.78125 L 12.390625 -14.515625 C 9.203125 -15.179688 6.710938 -16.328125 4.921875 -17.953125 C 3.140625 -19.585938 2.25 -21.769531 2.25 -24.5 C 2.25 -26.738281 2.851562 -28.703125 4.0625 -30.390625 C 5.28125 -32.078125 6.960938 -33.390625 9.109375 -34.328125 C 11.253906 -35.265625 13.726562 -35.734375 16.53125 -35.734375 C 19.40625 -35.734375 21.878906 -35.257812 23.953125 -34.3125 C 26.035156 -33.375 27.644531 -32.035156 28.78125 -30.296875 C 29.914062 -28.566406 30.5 -26.53125 30.53125 -24.1875 L 21.375 -24.1875 C 21.300781 -25.351562 20.859375 -26.265625 20.046875 -26.921875 C 19.242188 -27.578125 18.082031 -27.90625 16.5625 -27.90625 C 15.59375 -27.90625 14.785156 -27.785156 14.140625 -27.546875 C 13.492188 -27.316406 13.007812 -26.988281 12.6875 -26.5625 C 12.363281 -26.144531 12.203125 -25.671875 12.203125 -25.140625 C 12.203125 -24.578125 12.367188 -24.085938 12.703125 -23.671875 C 13.035156 -23.265625 13.5625 -22.910156 14.28125 -22.609375 C 15.007812 -22.304688 15.929688 -22.039062 17.046875 -21.8125 L 19.9375 -21.21875 C 21.894531 -20.800781 23.578125 -20.265625 24.984375 -19.609375 C 26.398438 -18.960938 27.554688 -18.191406 28.453125 -17.296875 C 29.347656 -16.410156 30.003906 -15.398438 30.421875 -14.265625 C 30.835938 -13.140625 31.046875 -11.898438 31.046875 -10.546875 C 31.046875 -8.203125 30.46875 -6.207031 29.3125 -4.5625 C 28.164062 -2.925781 26.515625 -1.679688 24.359375 -0.828125 C 22.210938 0.0234375 19.628906 0.453125 16.609375 0.453125 Z M 16.609375 0.453125 "/></g></g></g><g fill="#e30a17" fill-opacity="1"><g transform="translate(183.086557, 48.146553)"><g><path d="M 2.171875 0 L 2.171875 -35.234375 L 11.796875 -35.234375 L 11.796875 -21.90625 L 24.265625 -21.90625 L 24.265625 -35.234375 L 33.890625 -35.234375 L 33.890625 0 L 24.265625 0 L 24.265625 -14.046875 L 11.796875 -14.046875 L 11.796875 0 Z M 2.171875 0 "/></g></g></g><g fill="#e30a17" fill-opacity="1"><g transform="translate(219.152956, 48.146553)"><g><path d="M 2.171875 0 L 2.171875 -35.234375 L 17.1875 -35.234375 L 20.359375 -24.21875 C 20.628906 -23.269531 20.9375 -22.039062 21.28125 -20.53125 C 21.632812 -19.019531 21.988281 -17.398438 22.34375 -15.671875 C 22.695312 -13.941406 23.019531 -12.285156 23.3125 -10.703125 C 23.601562 -9.117188 23.828125 -7.773438 23.984375 -6.671875 L 22.046875 -6.671875 C 22.210938 -7.773438 22.4375 -9.117188 22.71875 -10.703125 C 23.007812 -12.285156 23.328125 -13.941406 23.671875 -15.671875 C 24.015625 -17.398438 24.359375 -19.019531 24.703125 -20.53125 C 25.054688 -22.039062 25.367188 -23.269531 25.640625 -24.21875 L 28.765625 -35.234375 L 43.78125 -35.234375 L 43.78125 0 L 34.125 0 L 34.125 -13.625 C 34.125 -14.425781 34.144531 -15.484375 34.1875 -16.796875 C 34.226562 -18.117188 34.269531 -19.566406 34.3125 -21.140625 C 34.363281 -22.722656 34.40625 -24.3125 34.4375 -25.90625 C 34.476562 -27.507812 34.5 -28.988281 34.5 -30.34375 L 35.1875 -30.34375 C 34.894531 -28.875 34.5625 -27.335938 34.1875 -25.734375 C 33.8125 -24.140625 33.4375 -22.578125 33.0625 -21.046875 C 32.6875 -19.515625 32.320312 -18.109375 31.96875 -16.828125 C 31.625 -15.546875 31.328125 -14.476562 31.078125 -13.625 L 26.984375 0 L 19.046875 0 L 14.875 -13.625 C 14.625 -14.476562 14.320312 -15.546875 13.96875 -16.828125 C 13.613281 -18.109375 13.238281 -19.515625 12.84375 -21.046875 C 12.445312 -22.578125 12.054688 -24.140625 11.671875 -25.734375 C 11.296875 -27.335938 10.953125 -28.875 10.640625 -30.34375 L 11.453125 -30.34375 C 11.453125 -28.988281 11.46875 -27.507812 11.5 -25.90625 C 11.539062 -24.3125 11.582031 -22.722656 11.625 -21.140625 C 11.675781 -19.566406 11.722656 -18.117188 11.765625 -16.796875 C 11.804688 -15.484375 11.828125 -14.425781 11.828125 -13.625 L 11.828125 0 Z M 2.171875 0 "/></g></g></g><g fill="#e30a17" fill-opacity="1"><g transform="translate(265.128738, 48.146553)"><g><path d="M 18.609375 0.5 C 15.410156 0.5 12.515625 -0.195312 9.921875 -1.59375 C 7.328125 -2.988281 5.269531 -5.03125 3.75 -7.71875 C 2.238281 -10.40625 1.484375 -13.695312 1.484375 -17.59375 C 1.484375 -21.519531 2.238281 -24.832031 3.75 -27.53125 C 5.269531 -30.226562 7.328125 -32.269531 9.921875 -33.65625 C 12.515625 -35.039062 15.410156 -35.734375 18.609375 -35.734375 C 21.816406 -35.734375 24.710938 -35.039062 27.296875 -33.65625 C 29.878906 -32.269531 31.929688 -30.226562 33.453125 -27.53125 C 34.972656 -24.832031 35.734375 -21.519531 35.734375 -17.59375 C 35.734375 -13.6875 34.972656 -10.390625 33.453125 -7.703125 C 31.929688 -5.015625 29.878906 -2.972656 27.296875 -1.578125 C 24.710938 -0.191406 21.816406 0.5 18.609375 0.5 Z M 18.609375 -7.875 C 20.203125 -7.875 21.535156 -8.25 22.609375 -9 C 23.679688 -9.75 24.492188 -10.847656 25.046875 -12.296875 C 25.597656 -13.742188 25.875 -15.507812 25.875 -17.59375 C 25.875 -19.6875 25.597656 -21.460938 25.046875 -22.921875 C 24.492188 -24.390625 23.679688 -25.492188 22.609375 -26.234375 C 21.535156 -26.984375 20.203125 -27.359375 18.609375 -27.359375 C 17.046875 -27.359375 15.722656 -26.984375 14.640625 -26.234375 C 13.566406 -25.492188 12.75 -24.390625 12.1875 -22.921875 C 11.632812 -21.460938 11.359375 -19.6875 11.359375 -17.59375 C 11.359375 -15.507812 11.632812 -13.742188 12.1875 -12.296875 C 12.75 -10.847656 13.566406 -9.75 14.640625 -9 C 15.722656 -8.25 17.046875 -7.875 18.609375 -7.875 Z M 18.609375 -7.875 "/></g></g></g><g fill="#e30a17" fill-opacity="1"><g transform="translate(302.377642, 48.146553)"><g><path d="M 18.515625 0.5 C 15.296875 0.5 12.398438 -0.195312 9.828125 -1.59375 C 7.265625 -2.988281 5.234375 -5.03125 3.734375 -7.71875 C 2.234375 -10.40625 1.484375 -13.695312 1.484375 -17.59375 C 1.484375 -21.519531 2.238281 -24.832031 3.75 -27.53125 C 5.269531 -30.226562 7.316406 -32.269531 9.890625 -33.65625 C 12.472656 -35.039062 15.347656 -35.734375 18.515625 -35.734375 C 20.722656 -35.734375 22.753906 -35.429688 24.609375 -34.828125 C 26.472656 -34.222656 28.109375 -33.34375 29.515625 -32.1875 C 30.921875 -31.039062 32.0625 -29.628906 32.9375 -27.953125 C 33.8125 -26.285156 34.359375 -24.394531 34.578125 -22.28125 L 24.828125 -22.28125 C 24.734375 -23.050781 24.523438 -23.75 24.203125 -24.375 C 23.878906 -25 23.460938 -25.535156 22.953125 -25.984375 C 22.441406 -26.429688 21.832031 -26.769531 21.125 -27 C 20.425781 -27.238281 19.644531 -27.359375 18.78125 -27.359375 C 17.1875 -27.359375 15.832031 -26.972656 14.71875 -26.203125 C 13.613281 -25.429688 12.773438 -24.316406 12.203125 -22.859375 C 11.640625 -21.398438 11.359375 -19.644531 11.359375 -17.59375 C 11.359375 -15.46875 11.648438 -13.679688 12.234375 -12.234375 C 12.816406 -10.796875 13.65625 -9.707031 14.75 -8.96875 C 15.84375 -8.238281 17.171875 -7.875 18.734375 -7.875 C 19.617188 -7.875 20.40625 -7.988281 21.09375 -8.21875 C 21.789062 -8.457031 22.398438 -8.800781 22.921875 -9.25 C 23.441406 -9.707031 23.863281 -10.242188 24.1875 -10.859375 C 24.519531 -11.484375 24.75 -12.179688 24.875 -12.953125 L 34.625 -12.953125 C 34.476562 -11.316406 34.023438 -9.707031 33.265625 -8.125 C 32.515625 -6.539062 31.460938 -5.097656 30.109375 -3.796875 C 28.753906 -2.492188 27.109375 -1.453125 25.171875 -0.671875 C 23.242188 0.109375 21.023438 0.5 18.515625 0.5 Z M 18.515625 0.5 "/></g></g></g><g fill="#e30a17" fill-opacity="1"><g transform="translate(338.396741, 48.146553)"><g><path d="M 9.4375 -5.90625 L 9.4375 -14.875 C 10.113281 -16.25 10.78125 -17.507812 11.4375 -18.65625 C 12.101562 -19.8125 12.84375 -20.976562 13.65625 -22.15625 C 14.46875 -23.34375 15.453125 -24.6875 16.609375 -26.1875 L 23.609375 -35.234375 L 34.9375 -35.234375 L 20.203125 -17.09375 L 19.296875 -17.390625 Z M 2.171875 0 L 2.171875 -35.234375 L 11.796875 -35.234375 L 11.796875 -27.671875 L 11.65625 -17.53125 L 11.796875 -12.859375 L 11.796875 0 Z M 24.34375 0 L 15.84375 -14.171875 L 21.875 -21.265625 L 35.59375 0 Z M 24.34375 0 "/></g></g></g></g></g></g></svg>